<?xml version="1.0" encoding="UTF-8" standalone="no"?>
<svg version="1.1" xmlns="http://www.w3.org/2000/svg" xmlns:xlink="http://www.w3.org/1999/xlink" width="453.44" height="332.48">
	<path id="Capital_F_by_Adam_Stanislav" transform="matrix(1,0,0,1,-170.309,-395.247)" fill="black" fill-rule="evenodd" d="M 387.405,446.111 C 386.639,446.119 385.825,446.189 384.976,446.332 C 363.641,452.097 346.616,470.587 343.364,492.555 C 337.575,515.269 337.2,538.736 339.564,561.949 C 326.881,564.089 315.781,571.564 304.905,578.104 C 295.931,582.535 287.876,590.064 285.332,600.028 L 309.632,588.387 C 310.875,584.969 312.821,581.731 315.272,578.899 C 321.724,577.037 328.48,576.364 335.159,577.456 C 337.456,577.761 339.649,578.333 341.779,579.077 C 342.524,583.907 343.357,588.715 344.261,593.492 C 350.936,624.952 352.539,657.28 350.441,689.321 C 349.376,696.584 348.556,704.743 345.675,711.753 C 339.345,711.223 332.947,709.283 327.073,707.581 C 305.907,700.279 283.947,685.161 279.965,661.517 L 259.871,672.597 C 251.549,675.495 261.631,685.831 263.265,691.121 C 277.88,712.784 303.787,725.604 329.497,727.623 C 342.575,729.332 351.339,718.16 362.179,713.116 C 370.767,705.076 371.985,692.316 373.715,681.296 C 375.501,655.221 375.113,628.819 371.2,602.937 C 370.532,599.107 369.852,595.269 369.18,591.427 C 384.221,595.153 399.989,590.601 414.168,585.305 C 421.264,579.749 428.359,574.193 435.455,568.636 C 427.475,571.973 419.26,574.86 410.723,576.384 C 399.475,578.719 387.392,577.081 377.589,570.936 C 373.56,568.477 369.284,566.207 364.832,564.471 C 362.131,545.119 360.667,525.645 362.709,506.108 C 365.077,491.835 366.984,476.237 374.16,463.531 L 389.213,454.305 C 398.021,451.729 394.825,446.028 387.405,446.111 Z M 326.816,395.301 C 288.593,395.152 250.227,405.211 217.588,424.959 C 195.608,436.928 170.516,454.461 170.275,482.351 C 170.932,516.051 188.949,552.028 221.117,565.648 C 241.896,577.001 262.435,563.692 279.597,552.441 L 256.028,561.584 C 238.579,571.145 258.448,560.169 265.039,556.109 C 282.891,546.304 265.127,556.225 255.864,553.957 C 219.907,549.481 197.193,513.423 193.704,479.741 C 190.465,459.127 203.027,441.371 218.949,429.603 C 258.288,411.147 303.757,405.636 346.365,413.98 C 401.025,423.019 442.283,464.273 493.821,481.639 C 525.781,491.648 562.823,500.912 594.479,484.883 C 602.64,477.356 625.092,474.293 623.725,462.333 L 615.304,468.293 C 587.887,484.163 554.244,478.277 525.177,470.503 C 471.009,456.176 429.472,413.675 374.712,400.991 C 359.067,397.248 342.955,395.365 326.816,395.301 Z "/>
</svg>